<mxfile host="app.diagrams.net" modified="2023-07-31T12:55:57.627Z" agent="Mozilla/5.0 (Windows NT 10.0; Win64; x64) AppleWebKit/537.36 (KHTML, like Gecko) Chrome/115.0.0.0 Safari/537.36" etag="_6PEFs21wuPZCmWHA8Of" version="21.6.6" type="device">
  <diagram name="Page-1" id="KjDWf3tLVZ6ZIdkiQO_k">
    <mxGraphModel dx="1376" dy="768" grid="1" gridSize="10" guides="1" tooltips="1" connect="1" arrows="1" fold="1" page="1" pageScale="1" pageWidth="850" pageHeight="1100" background="#ffffff" math="0" shadow="0">
      <root>
        <mxCell id="0" />
        <mxCell id="1" parent="0" />
        <mxCell id="3ZPkQFTFad1fxASzTKeH-1" value="Function: l_cc_auto_setWeatherState&#xa;&#xa;&#xa;&#xa;Description:&#xa;    Based on the weather which is the outside temperature, it will set weatherState&#xa;    accordingly: freezing if below 0, chilly if below 15 C, warm below 25 C and hot above 25 C&#xa;&#xa;&#xa;&#xa;Parameters In:&#xa;    weather: uint16&#xa;&#xa;&#xa;&#xa;Parameters Out:&#xa;    None&#xa;&#xa;&#xa;&#xa;Return Value:&#xa;    None" style="text;whiteSpace=wrap;" vertex="1" parent="1">
          <mxGeometry x="390" y="20" width="450" height="380" as="geometry" />
        </mxCell>
        <mxCell id="3ZPkQFTFad1fxASzTKeH-3" style="edgeStyle=orthogonalEdgeStyle;rounded=0;orthogonalLoop=1;jettySize=auto;html=1;" edge="1" parent="1" source="3ZPkQFTFad1fxASzTKeH-2" target="3ZPkQFTFad1fxASzTKeH-4">
          <mxGeometry relative="1" as="geometry">
            <mxPoint x="210" y="300" as="targetPoint" />
          </mxGeometry>
        </mxCell>
        <mxCell id="3ZPkQFTFad1fxASzTKeH-2" value="" style="ellipse;whiteSpace=wrap;html=1;" vertex="1" parent="1">
          <mxGeometry x="150" y="150" width="120" height="80" as="geometry" />
        </mxCell>
        <mxCell id="3ZPkQFTFad1fxASzTKeH-5" style="edgeStyle=orthogonalEdgeStyle;rounded=0;orthogonalLoop=1;jettySize=auto;html=1;" edge="1" parent="1" source="3ZPkQFTFad1fxASzTKeH-4" target="3ZPkQFTFad1fxASzTKeH-6">
          <mxGeometry relative="1" as="geometry">
            <mxPoint x="210" y="430" as="targetPoint" />
          </mxGeometry>
        </mxCell>
        <mxCell id="3ZPkQFTFad1fxASzTKeH-4" value="call l_cc_auto_setWeatherState" style="rounded=1;whiteSpace=wrap;html=1;" vertex="1" parent="1">
          <mxGeometry x="120" y="300" width="180" height="60" as="geometry" />
        </mxCell>
        <mxCell id="3ZPkQFTFad1fxASzTKeH-7" value="yes" style="edgeStyle=orthogonalEdgeStyle;rounded=0;orthogonalLoop=1;jettySize=auto;html=1;exitX=1;exitY=0.5;exitDx=0;exitDy=0;" edge="1" parent="1" source="3ZPkQFTFad1fxASzTKeH-6" target="3ZPkQFTFad1fxASzTKeH-9">
          <mxGeometry relative="1" as="geometry">
            <mxPoint x="390" y="495" as="targetPoint" />
          </mxGeometry>
        </mxCell>
        <mxCell id="3ZPkQFTFad1fxASzTKeH-8" value="no" style="edgeStyle=orthogonalEdgeStyle;rounded=0;orthogonalLoop=1;jettySize=auto;html=1;" edge="1" parent="1" source="3ZPkQFTFad1fxASzTKeH-6" target="3ZPkQFTFad1fxASzTKeH-11">
          <mxGeometry relative="1" as="geometry">
            <mxPoint x="210" y="630" as="targetPoint" />
          </mxGeometry>
        </mxCell>
        <mxCell id="3ZPkQFTFad1fxASzTKeH-6" value="if weather less or equal &lt;br&gt;to TEMP_0_C or weather less&lt;br&gt;&amp;nbsp;than or equal to &lt;br&gt;TEMP_NEGATIVE_5_C" style="rhombus;whiteSpace=wrap;html=1;" vertex="1" parent="1">
          <mxGeometry x="107.5" y="420" width="205" height="150" as="geometry" />
        </mxCell>
        <mxCell id="3ZPkQFTFad1fxASzTKeH-26" style="edgeStyle=orthogonalEdgeStyle;rounded=0;orthogonalLoop=1;jettySize=auto;html=1;entryX=0.5;entryY=0;entryDx=0;entryDy=0;" edge="1" parent="1" source="3ZPkQFTFad1fxASzTKeH-9" target="3ZPkQFTFad1fxASzTKeH-28">
          <mxGeometry relative="1" as="geometry">
            <mxPoint x="610" y="660" as="targetPoint" />
            <Array as="points">
              <mxPoint x="611" y="495" />
            </Array>
          </mxGeometry>
        </mxCell>
        <mxCell id="3ZPkQFTFad1fxASzTKeH-9" value="weatherState is assigned as freezing" style="rounded=1;whiteSpace=wrap;html=1;" vertex="1" parent="1">
          <mxGeometry x="425" y="465" width="120" height="60" as="geometry" />
        </mxCell>
        <mxCell id="3ZPkQFTFad1fxASzTKeH-12" value="yes" style="edgeStyle=orthogonalEdgeStyle;rounded=0;orthogonalLoop=1;jettySize=auto;html=1;" edge="1" parent="1" source="3ZPkQFTFad1fxASzTKeH-11" target="3ZPkQFTFad1fxASzTKeH-13">
          <mxGeometry relative="1" as="geometry">
            <mxPoint x="430" y="700" as="targetPoint" />
          </mxGeometry>
        </mxCell>
        <mxCell id="3ZPkQFTFad1fxASzTKeH-15" value="no" style="edgeStyle=orthogonalEdgeStyle;rounded=0;orthogonalLoop=1;jettySize=auto;html=1;entryX=0.5;entryY=0;entryDx=0;entryDy=0;" edge="1" parent="1" source="3ZPkQFTFad1fxASzTKeH-11" target="3ZPkQFTFad1fxASzTKeH-17">
          <mxGeometry relative="1" as="geometry">
            <mxPoint x="210" y="820" as="targetPoint" />
          </mxGeometry>
        </mxCell>
        <mxCell id="3ZPkQFTFad1fxASzTKeH-11" value="if weather less than&lt;br&gt;&amp;nbsp;or equal to TEMP_15_C" style="rhombus;whiteSpace=wrap;html=1;" vertex="1" parent="1">
          <mxGeometry x="110" y="630" width="200" height="140" as="geometry" />
        </mxCell>
        <mxCell id="3ZPkQFTFad1fxASzTKeH-27" style="edgeStyle=orthogonalEdgeStyle;rounded=0;orthogonalLoop=1;jettySize=auto;html=1;" edge="1" parent="1" source="3ZPkQFTFad1fxASzTKeH-13" target="3ZPkQFTFad1fxASzTKeH-28">
          <mxGeometry relative="1" as="geometry">
            <mxPoint x="600" y="700" as="targetPoint" />
          </mxGeometry>
        </mxCell>
        <mxCell id="3ZPkQFTFad1fxASzTKeH-13" value="weatherState is assigned as chilly" style="rounded=1;whiteSpace=wrap;html=1;" vertex="1" parent="1">
          <mxGeometry x="425" y="670" width="120" height="60" as="geometry" />
        </mxCell>
        <mxCell id="3ZPkQFTFad1fxASzTKeH-19" value="yes" style="edgeStyle=orthogonalEdgeStyle;rounded=0;orthogonalLoop=1;jettySize=auto;html=1;" edge="1" parent="1" source="3ZPkQFTFad1fxASzTKeH-17" target="3ZPkQFTFad1fxASzTKeH-20">
          <mxGeometry relative="1" as="geometry">
            <mxPoint x="430" y="900" as="targetPoint" />
          </mxGeometry>
        </mxCell>
        <mxCell id="3ZPkQFTFad1fxASzTKeH-24" value="no" style="edgeStyle=orthogonalEdgeStyle;rounded=0;orthogonalLoop=1;jettySize=auto;html=1;entryX=0.5;entryY=0;entryDx=0;entryDy=0;" edge="1" parent="1" source="3ZPkQFTFad1fxASzTKeH-17" target="3ZPkQFTFad1fxASzTKeH-22">
          <mxGeometry relative="1" as="geometry" />
        </mxCell>
        <mxCell id="3ZPkQFTFad1fxASzTKeH-17" value="if weather less than&lt;br&gt;&amp;nbsp;or equal to TEMP_25_C" style="rhombus;whiteSpace=wrap;html=1;" vertex="1" parent="1">
          <mxGeometry x="110" y="830" width="200" height="140" as="geometry" />
        </mxCell>
        <mxCell id="3ZPkQFTFad1fxASzTKeH-31" style="edgeStyle=orthogonalEdgeStyle;rounded=0;orthogonalLoop=1;jettySize=auto;html=1;entryX=0;entryY=0.5;entryDx=0;entryDy=0;" edge="1" parent="1" source="3ZPkQFTFad1fxASzTKeH-20" target="3ZPkQFTFad1fxASzTKeH-30">
          <mxGeometry relative="1" as="geometry" />
        </mxCell>
        <mxCell id="3ZPkQFTFad1fxASzTKeH-20" value="weatherState is assigned to warm" style="rounded=1;whiteSpace=wrap;html=1;" vertex="1" parent="1">
          <mxGeometry x="425" y="870" width="120" height="60" as="geometry" />
        </mxCell>
        <mxCell id="3ZPkQFTFad1fxASzTKeH-21" value="yes" style="edgeStyle=orthogonalEdgeStyle;rounded=0;orthogonalLoop=1;jettySize=auto;html=1;" edge="1" parent="1" source="3ZPkQFTFad1fxASzTKeH-22" target="3ZPkQFTFad1fxASzTKeH-23">
          <mxGeometry relative="1" as="geometry">
            <mxPoint x="430" y="1080" as="targetPoint" />
          </mxGeometry>
        </mxCell>
        <mxCell id="3ZPkQFTFad1fxASzTKeH-25" value="no" style="edgeStyle=orthogonalEdgeStyle;rounded=0;orthogonalLoop=1;jettySize=auto;html=1;" edge="1" parent="1" source="3ZPkQFTFad1fxASzTKeH-22" target="3ZPkQFTFad1fxASzTKeH-36">
          <mxGeometry relative="1" as="geometry">
            <mxPoint x="210" y="1240" as="targetPoint" />
          </mxGeometry>
        </mxCell>
        <mxCell id="3ZPkQFTFad1fxASzTKeH-22" value="if weather is more than&lt;br&gt;&amp;nbsp;TEMP_25_C" style="rhombus;whiteSpace=wrap;html=1;" vertex="1" parent="1">
          <mxGeometry x="110" y="1010" width="200" height="140" as="geometry" />
        </mxCell>
        <mxCell id="3ZPkQFTFad1fxASzTKeH-33" style="edgeStyle=orthogonalEdgeStyle;rounded=0;orthogonalLoop=1;jettySize=auto;html=1;exitX=1;exitY=0.5;exitDx=0;exitDy=0;" edge="1" parent="1" source="3ZPkQFTFad1fxASzTKeH-23" target="3ZPkQFTFad1fxASzTKeH-34">
          <mxGeometry relative="1" as="geometry">
            <mxPoint x="590" y="1080" as="targetPoint" />
          </mxGeometry>
        </mxCell>
        <mxCell id="3ZPkQFTFad1fxASzTKeH-23" value="weatherState is assigned to hot" style="rounded=1;whiteSpace=wrap;html=1;" vertex="1" parent="1">
          <mxGeometry x="425" y="1050" width="120" height="60" as="geometry" />
        </mxCell>
        <mxCell id="3ZPkQFTFad1fxASzTKeH-29" style="edgeStyle=orthogonalEdgeStyle;rounded=0;orthogonalLoop=1;jettySize=auto;html=1;" edge="1" parent="1" source="3ZPkQFTFad1fxASzTKeH-28" target="3ZPkQFTFad1fxASzTKeH-30">
          <mxGeometry relative="1" as="geometry">
            <mxPoint x="610" y="880" as="targetPoint" />
          </mxGeometry>
        </mxCell>
        <mxCell id="3ZPkQFTFad1fxASzTKeH-28" value="" style="rhombus;whiteSpace=wrap;html=1;" vertex="1" parent="1">
          <mxGeometry x="590" y="680" width="40" height="40" as="geometry" />
        </mxCell>
        <mxCell id="3ZPkQFTFad1fxASzTKeH-32" style="edgeStyle=orthogonalEdgeStyle;rounded=0;orthogonalLoop=1;jettySize=auto;html=1;entryX=0.5;entryY=0;entryDx=0;entryDy=0;" edge="1" parent="1" source="3ZPkQFTFad1fxASzTKeH-30" target="3ZPkQFTFad1fxASzTKeH-34">
          <mxGeometry relative="1" as="geometry">
            <mxPoint x="620" y="1060" as="targetPoint" />
            <Array as="points">
              <mxPoint x="610" y="1060" />
            </Array>
          </mxGeometry>
        </mxCell>
        <mxCell id="3ZPkQFTFad1fxASzTKeH-30" value="" style="rhombus;whiteSpace=wrap;html=1;" vertex="1" parent="1">
          <mxGeometry x="590" y="880" width="40" height="40" as="geometry" />
        </mxCell>
        <mxCell id="3ZPkQFTFad1fxASzTKeH-37" style="edgeStyle=orthogonalEdgeStyle;rounded=0;orthogonalLoop=1;jettySize=auto;html=1;entryX=1;entryY=0.5;entryDx=0;entryDy=0;" edge="1" parent="1" source="3ZPkQFTFad1fxASzTKeH-34" target="3ZPkQFTFad1fxASzTKeH-36">
          <mxGeometry relative="1" as="geometry">
            <Array as="points">
              <mxPoint x="610" y="1245" />
            </Array>
          </mxGeometry>
        </mxCell>
        <mxCell id="3ZPkQFTFad1fxASzTKeH-34" value="" style="rhombus;whiteSpace=wrap;html=1;" vertex="1" parent="1">
          <mxGeometry x="590" y="1060" width="40" height="40" as="geometry" />
        </mxCell>
        <mxCell id="3ZPkQFTFad1fxASzTKeH-38" style="edgeStyle=orthogonalEdgeStyle;rounded=0;orthogonalLoop=1;jettySize=auto;html=1;entryX=0.5;entryY=0;entryDx=0;entryDy=0;" edge="1" parent="1" source="3ZPkQFTFad1fxASzTKeH-36" target="3ZPkQFTFad1fxASzTKeH-40">
          <mxGeometry relative="1" as="geometry">
            <mxPoint x="210" y="1310" as="targetPoint" />
          </mxGeometry>
        </mxCell>
        <mxCell id="3ZPkQFTFad1fxASzTKeH-36" value="" style="rhombus;whiteSpace=wrap;html=1;" vertex="1" parent="1">
          <mxGeometry x="185" y="1220" width="50" height="50" as="geometry" />
        </mxCell>
        <mxCell id="3ZPkQFTFad1fxASzTKeH-40" value="" style="ellipse;whiteSpace=wrap;html=1;" vertex="1" parent="1">
          <mxGeometry x="150" y="1330" width="120" height="80" as="geometry" />
        </mxCell>
      </root>
    </mxGraphModel>
  </diagram>
</mxfile>
